<?xml version="1.0" standalone="no"?>
<!DOCTYPE svg PUBLIC "-//W3C//DTD SVG 20010904//EN"
 "http://www.w3.org/TR/2001/REC-SVG-20010904/DTD/svg10.dtd">
<svg version="1.0" xmlns="http://www.w3.org/2000/svg"
 width="400.000000pt" height="345.000000pt" viewBox="0 0 400.000000 345.000000"
 preserveAspectRatio="xMidYMid meet">
<metadata>
Created by potrace 1.15, written by Peter Selinger 2001-2017
</metadata>
<g transform="translate(0.000000,345.000000) scale(0.100000,-0.100000)"
fill="#000000" stroke="none">
<path d="M1817 3224 c-4 -4 -111 -8 -239 -10 -128 -2 -305 -8 -393 -14 -88 -5
-218 -12 -290 -15 -191 -9 -231 -13 -330 -35 -95 -22 -155 -50 -155 -74 0 -48
254 -61 515 -25 284 38 667 80 783 86 l82 4 0 -95 0 -96 -79 0 c-60 0 -120
-11 -257 -45 -99 -25 -210 -57 -249 -72 -111 -41 -305 -136 -373 -181 -34 -23
-88 -60 -120 -81 -71 -48 -97 -77 -195 -219 -161 -232 -219 -427 -218 -733 1
-166 10 -202 69 -256 21 -19 62 -47 92 -64 30 -17 78 -43 105 -59 105 -62 143
-79 206 -90 35 -7 158 -35 274 -63 l210 -52 65 -65 c36 -36 137 -135 225 -220
146 -142 168 -159 255 -202 203 -100 435 -196 556 -231 335 -97 421 -112 613
-104 189 8 292 26 416 72 127 48 155 62 239 123 79 58 140 127 169 191 16 38
19 60 15 140 -6 113 -16 140 -92 246 -61 85 -124 144 -191 177 -35 18 -222
126 -235 136 -3 2 -8 34 -11 70 -11 118 -39 375 -49 447 -11 73 -44 191 -59
209 -5 6 -16 36 -25 66 -9 30 -31 77 -49 105 -18 27 -51 85 -73 129 -35 70
-49 86 -130 151 -50 40 -104 80 -120 88 -16 9 -58 43 -94 77 -116 109 -485
273 -689 306 -53 8 -106 13 -118 11 -23 -4 -23 -2 -23 95 0 97 0 98 23 94 132
-27 542 -56 804 -56 231 0 292 6 365 35 25 10 34 46 14 60 -29 22 -805 42
-1026 27 -120 -8 -148 -7 -161 4 -16 15 -41 18 -52 8z m140 -298 c3 -3 -5 -15
-18 -26 -24 -20 -23 -20 25 1 50 22 105 21 165 -3 47 -19 66 -26 101 -38 77
-26 120 -45 195 -83 33 -17 83 -42 112 -56 62 -31 162 -110 163 -130 0 -17
-44 -7 -81 20 -15 10 -32 19 -38 19 -6 0 -30 8 -54 19 -40 18 -189 66 -272 89
-46 13 -170 25 -264 27 -53 1 -66 5 -72 21 -4 10 -21 28 -38 39 -26 17 -31 26
-31 61 0 22 3 44 8 48 8 9 89 2 99 -8z m-159 -44 c3 -38 0 -44 -27 -60 -17 -9
-31 -20 -31 -23 0 -3 -73 -4 -162 -2 -113 4 -204 0 -298 -11 -168 -20 -170
-20 -142 0 30 21 148 60 252 84 47 11 117 29 155 40 50 14 96 19 160 17 l90
-2 3 -43z m1549 -1641 c32 -21 90 -55 128 -76 83 -44 156 -98 182 -134 99
-134 118 -170 129 -236 21 -128 -9 -219 -99 -310 -75 -74 -160 -127 -283 -175
-125 -49 -154 -55 -360 -75 -157 -15 -165 -15 -285 5 -206 35 -476 112 -611
174 -31 14 -60 26 -64 26 -6 0 -36 13 -238 108 -115 53 -163 89 -289 215 -62
62 -148 144 -192 183 -44 40 -77 75 -73 79 4 4 37 2 75 -4 331 -51 876 -82
1088 -62 280 28 321 34 415 66 180 63 268 114 365 214 21 23 42 41 46 41 4 0
34 -17 66 -39z"/>
</g>
</svg>
